<?xml version="1.0" standalone="no"?>
<!DOCTYPE svg PUBLIC "-//W3C//DTD SVG 20010904//EN"
 "http://www.w3.org/TR/2001/REC-SVG-20010904/DTD/svg10.dtd">
<svg version="1.0" xmlns="http://www.w3.org/2000/svg"
 width="612.000000pt" height="367.000000pt" viewBox="0 0 612.000000 367.000000"
 preserveAspectRatio="xMidYMid meet">

<g transform="translate(0.000000,367.000000) scale(0.100000,-0.100000)"
fill="#000000" stroke="none">
<path d="M3470 3280 c0 -11 -5 -29 -12 -39 -10 -16 -4 -27 41 -79 l52 -60 -3
-63 -3 -64 -105 3 c-58 1 -111 -2 -119 -7 -17 -11 -40 -233 -40 -398 l-1 -103
43 0 c24 0 92 -3 151 -7 l108 -6 -7 104 c-5 85 -18 239 -29 344 -4 32 2 35 41
19 25 -11 51 -14 81 -9 39 6 43 5 38 -12 -3 -10 -10 -97 -16 -193 -6 -96 -13
-191 -16 -211 -3 -22 -1 -40 5 -44 11 -6 281 12 289 20 12 12 -11 482 -25 495
-3 3 -54 4 -114 3 l-109 -2 0 70 c0 74 10 99 66 154 28 28 30 41 9 49 -8 3
-15 17 -15 31 l0 26 -32 -18 c-48 -25 -217 -25 -242 0 -23 23 -36 22 -36 -3z
m85 -36 c-11 -8 -20 -20 -20 -27 0 -28 -20 -19 -23 11 -3 30 -2 32 30 32 32
-1 32 -1 13 -16z m188 -21 c-7 -48 -14 -55 -57 -60 -37 -4 -52 14 -40 49 4 15
13 19 40 16 38 -3 47 14 12 24 -18 5 -15 6 14 7 l37 1 -6 -37z m-113 3 c0 -3
-4 -8 -10 -11 -5 -3 -10 -1 -10 4 0 6 5 11 10 11 6 0 10 -2 10 -4z m-30 -47
c-7 -11 -14 -19 -16 -16 -7 7 7 37 17 37 6 0 5 -9 -1 -21z"/>
<path d="M3665 3210 c-8 -13 15 -24 27 -12 6 6 4 11 -6 15 -8 3 -18 2 -21 -3z"/>
<path d="M2250 3261 c0 -17 -5 -40 -12 -51 -11 -17 -7 -24 30 -58 39 -37 42
-42 42 -93 0 -66 -16 -92 -68 -107 l-40 -12 19 -36 c20 -39 36 -112 42 -184
l3 -45 159 3 c88 2 168 6 178 8 22 7 23 75 1 182 -16 82 -31 102 -74 102 -19
0 -30 8 -38 25 -16 36 -15 50 9 96 22 44 41 141 33 164 -4 10 -32 15 -102 19
-53 2 -116 7 -139 11 -43 7 -43 7 -43 -24z"/>
<path d="M4960 3280 c-8 -5 -54 -10 -101 -10 -80 0 -87 -2 -92 -22 -9 -31 10
-116 34 -157 16 -27 19 -44 14 -78 l-6 -43 -44 0 c-43 0 -44 -1 -55 -41 -17
-61 -30 -148 -30 -196 0 -38 3 -43 23 -43 12 0 89 -5 171 -10 82 -5 151 -8
154 -6 2 3 8 38 12 78 5 40 16 94 25 118 30 82 31 77 -24 91 l-51 13 0 71 c0
70 1 72 40 110 38 37 51 65 31 65 -6 0 -11 15 -13 33 -3 29 -6 32 -38 35 -19
1 -42 -2 -50 -8z"/>
<path d="M1094 2996 c3 -39 0 -56 -10 -60 -7 -3 -20 -19 -30 -37 -15 -29 -15
-35 0 -65 21 -45 58 -69 85 -55 29 16 31 14 31 -22 0 -63 80 -112 140 -87 35
14 35 16 15 63 -21 51 -19 80 7 92 33 15 55 62 63 137 l7 67 -108 -1 c-74 -1
-109 2 -112 10 -2 7 -23 12 -47 12 l-44 0 3 -54z"/>
<path d="M1692 2955 c-24 -51 -18 -58 96 -102 59 -24 113 -43 119 -43 9 0 33
49 33 70 0 4 -17 14 -37 23 -21 9 -70 30 -110 46 -39 17 -76 31 -81 31 -5 0
-14 -11 -20 -25z"/>
<path d="M2640 2943 c0 -5 6 -28 14 -53 7 -25 17 -83 21 -130 6 -72 13 -96 46
-156 l39 -71 0 -159 c0 -94 7 -200 16 -259 9 -55 18 -116 20 -135 14 -108 11
-102 57 -95 86 13 81 4 73 128 -4 61 -13 158 -21 216 -7 58 -17 154 -20 213
-6 94 -5 107 11 116 16 9 16 13 0 76 -45 181 -146 316 -236 316 -11 0 -20 -3
-20 -7z"/>
<path d="M4598 2936 c-61 -27 -114 -99 -155 -210 -9 -25 -20 -120 -28 -246 -8
-113 -20 -266 -29 -340 -8 -74 -17 -160 -19 -191 l-3 -56 49 -12 c26 -6 52
-11 56 -11 32 0 72 292 70 516 l-1 151 41 70 c31 53 41 80 41 114 1 46 23 181
35 212 9 20 -15 22 -57 3z"/>
<path d="M1996 2828 c-71 -51 -134 -102 -140 -113 -6 -11 -28 -40 -50 -64 -33
-37 -38 -48 -33 -80 5 -40 85 -221 126 -287 48 -77 128 -154 160 -154 25 0 10
83 -28 163 -51 107 -96 246 -84 258 6 6 18 0 33 -16 l23 -25 42 35 c23 19 45
31 49 28 3 -4 6 -38 6 -77 0 -91 8 -104 42 -69 34 37 64 98 72 148 16 98 -39
345 -77 345 -7 0 -70 -42 -141 -92z"/>
<path d="M5142 2907 c-21 -25 -33 -72 -48 -181 -16 -120 -12 -170 17 -229 27
-53 44 -189 30 -237 -19 -63 -41 -230 -41 -310 0 -118 -1 -120 -74 -120 -35 0
-67 -5 -74 -12 -7 -7 -12 -39 -12 -75 l0 -62 -72 -3 -73 -3 -3 -157 -3 -158
301 0 300 0 0 160 0 160 -75 0 -75 0 0 70 c0 66 -1 70 -25 76 -23 6 -25 10
-19 43 4 20 15 59 25 86 10 28 36 114 59 193 l42 144 -12 176 c-22 334 -37
380 -146 445 -7 4 -16 1 -22 -6z m-79 -1141 c3 -8 24 -16 47 -18 32 -3 45 1
54 14 18 25 26 12 26 -39 l0 -43 -100 0 -100 0 0 43 c0 24 3 47 7 50 12 13 61
7 66 -7z"/>
<path d="M3001 2725 c-80 -78 -82 -93 -22 -229 58 -131 105 -209 166 -272 44
-44 58 -53 101 -58 37 -6 51 -12 52 -24 7 -59 0 -279 -12 -430 -25 -302 -39
-704 -34 -1022 3 -263 6 -310 21 -339 15 -31 16 -38 2 -84 -26 -88 -27 -87 70
-87 97 0 98 1 71 92 -12 37 -12 47 -2 51 49 19 122 425 137 766 9 217 12 240
40 327 16 52 34 94 38 94 5 0 22 -48 39 -107 28 -98 31 -127 37 -303 5 -148
15 -248 41 -415 41 -262 56 -324 84 -347 l21 -17 -19 -63 c-11 -35 -18 -66
-15 -70 2 -5 42 -8 89 -8 96 0 95 -1 69 87 -13 44 -13 53 0 80 28 55 35 135
35 377 0 276 -14 638 -36 939 -9 114 -17 272 -19 351 l-4 144 49 6 c92 12 178
112 269 314 28 63 51 128 51 145 0 35 -20 62 -91 126 l-47 42 -46 -80 c-25
-44 -46 -83 -46 -86 0 -3 14 -11 30 -16 17 -6 30 -16 30 -22 0 -49 -113 -318
-136 -325 -15 -4 -44 59 -44 95 l0 30 -47 -8 c-27 -4 -94 -8 -149 -8 -97 -1
-102 -2 -108 -23 -18 -70 -2 -82 92 -73 59 6 60 6 64 -22 3 -15 7 -35 9 -43 3
-11 -7 -16 -41 -17 -72 -4 -130 -14 -129 -21 1 -4 1 -22 0 -39 -1 -30 -4 -33
-31 -33 -29 0 -30 2 -30 44 l0 43 -87 2 c-48 1 -89 3 -91 5 -2 2 2 23 8 46
l11 42 75 -7 75 -7 -3 49 -3 48 -130 12 c-71 6 -137 12 -146 12 -12 1 -18 -11
-22 -39 -5 -42 -30 -90 -47 -90 -13 0 -73 129 -103 220 -14 41 -28 83 -32 92
-5 12 2 21 29 35 l36 18 -48 83 c-26 45 -49 82 -52 81 -3 0 -34 -29 -69 -64z
m969 -430 c0 -22 -4 -25 -37 -24 -21 0 -47 4 -58 8 -17 7 -12 10 25 20 25 7
50 14 55 16 6 2 11 4 13 4 1 1 2 -10 2 -24z m-624 -5 c13 0 24 -4 24 -10 0 -5
-20 -10 -45 -10 -42 0 -54 7 -38 24 4 3 13 4 21 1 7 -3 25 -5 38 -5z"/>
<path d="M1360 2742 c0 -5 6 -31 14 -58 8 -27 17 -68 21 -91 l7 -43 -131 0
-131 0 0 28 c-1 15 -11 56 -23 92 -18 54 -25 64 -42 62 -11 -2 -21 -5 -22 -6
-1 -1 7 -31 16 -66 42 -150 35 -280 -16 -303 -22 -10 -23 -15 -23 -115 0 -81
-7 -131 -29 -226 -16 -66 -32 -147 -36 -178 -6 -58 -17 -71 -33 -42 -13 23
-86 9 -78 -15 29 -89 31 -91 58 -91 23 0 28 -4 28 -26 0 -14 4 -23 9 -19 6 3
8 14 6 25 -2 11 0 22 6 25 5 4 9 -8 9 -24 l0 -31 65 0 65 0 0 -39 c0 -35 -3
-39 -31 -45 -17 -3 -99 -6 -181 -6 l-150 0 6 -27 c2 -16 7 -68 11 -118 3 -49
8 -114 12 -142 l5 -53 78 0 77 0 6 -147 c8 -169 37 -384 56 -407 10 -12 33
-16 92 -16 73 0 80 2 88 22 10 24 23 170 41 433 16 234 33 376 41 340 4 -16 7
-57 8 -90 1 -33 10 -121 21 -195 12 -74 31 -215 44 -312 13 -97 27 -182 31
-187 3 -6 40 -11 85 -11 94 0 84 -20 100 195 21 292 24 665 6 840 -20 190 -21
196 -51 305 -22 76 -25 109 -29 315 -4 226 -11 299 -43 403 -14 43 -21 52 -40
52 -13 0 -23 -4 -23 -8z"/>
<path d="M1702 2678 c5 -24 -33 -107 -46 -102 -8 3 -23 -7 -35 -22 -20 -25
-20 -28 -4 -55 14 -23 14 -30 3 -44 -15 -18 -13 -20 16 -29 17 -5 22 -3 20 11
-1 15 6 17 38 15 36 -4 38 -2 33 20 -3 12 -11 37 -18 54 -11 27 -9 37 15 89
20 45 24 60 14 67 -20 12 -39 10 -36 -4z"/>
<path d="M2278 2106 c-33 -28 -37 -44 -6 -22 28 20 38 20 38 1 0 -17 35 -21
45 -5 3 6 17 10 30 10 34 0 41 18 10 30 -44 17 -88 12 -117 -14z"/>
<path d="M2560 2076 c0 -9 0 -19 -1 -23 0 -4 4 -9 10 -11 14 -5 14 35 1 43 -5
3 -10 -1 -10 -9z"/>
<path d="M2480 1970 c0 -11 4 -20 9 -20 6 0 9 9 8 20 -1 11 -5 20 -9 20 -4 0
-8 -9 -8 -20z"/>
<path d="M2560 1966 c0 -30 15 -42 24 -20 10 27 7 44 -9 44 -9 0 -15 -9 -15
-24z"/>
<path d="M2808 1808 c-18 -18 -20 -28 -13 -91 4 -40 9 -75 12 -80 6 -10 166
-7 183 3 7 4 15 28 17 54 7 61 -12 90 -74 110 -81 26 -102 27 -125 4z m113
-39 c38 -12 57 -35 41 -51 -13 -13 -133 3 -139 19 -16 40 25 54 98 32z"/>
<path d="M4366 1751 c-4 -6 5 -13 21 -17 15 -3 33 -7 40 -9 12 -4 29 12 22 20
-11 10 -78 15 -83 6z"/>
<path d="M4550 330 c-8 -5 -46 -22 -85 -37 -81 -31 -91 -38 -100 -75 l-7 -28
191 0 191 0 0 33 c0 17 -3 48 -6 67 l-6 35 -66 3 c-37 2 -74 5 -82 7 -8 3 -22
0 -30 -5z"/>
<path d="M2628 323 l-57 -4 -6 -43 c-4 -24 -5 -54 -3 -67 l3 -24 188 -3 c202
-3 199 -4 178 50 -6 17 -33 32 -104 61 -52 20 -106 36 -119 35 -12 -1 -49 -3
-80 -5z"/>
<path d="M5060 321 l-65 -6 -18 -54 c-10 -30 -16 -60 -13 -68 4 -9 30 -13 101
-13 90 0 95 1 95 21 0 19 -29 131 -33 127 -1 -1 -31 -4 -67 -7z"/>
<path d="M2156 266 c-26 -90 -30 -86 85 -86 l101 0 -7 33 c-4 17 -13 48 -19
67 -11 35 -11 35 -78 38 l-66 3 -16 -55z"/>
</g>
</svg>
