<?xml version="1.0" encoding="utf-8"?>
<!-- Generator: Adobe Illustrator 23.0.0, SVG Export Plug-In . SVG Version: 6.00 Build 0)  -->
<svg version="1.1" id="Layer_1" xmlns="http://www.w3.org/2000/svg" xmlns:xlink="http://www.w3.org/1999/xlink" x="0px" y="0px"
	 viewBox="0 0 887 148" style="enable-background:new 0 0 887 148;" xml:space="preserve">
<style type="text/css">
	.st0{fill:none;stroke:#000000;stroke-width:3;stroke-miterlimit:10;}
</style>
<g>
	<g>
		<path d="M89.57,86.66h-51.1v55.52H5.62V7.32h32.85v52.83h51.1V7.32h32.85v134.86H89.57V86.66z"/>
		<path d="M194.85,143.52c-29.01,0-51.68-14.41-52.64-41.69h34.96c0.96,10.37,7.49,15.37,16.71,15.37c9.61,0,15.75-4.8,15.75-12.68
			c0-24.97-67.43-11.53-67.05-59.36c0-25.55,20.94-39.77,49.18-39.77c29.39,0,49.18,14.6,50.52,40.34h-35.54
			c-0.58-8.64-6.72-13.83-15.56-14.02c-7.88-0.19-13.83,3.84-13.83,12.29c0,23.44,66.66,12.87,66.66,58.02
			C244.03,124.7,226.35,143.52,194.85,143.52z"/>
		<path d="M348.15,118.36h-50.33l-8.07,23.82h-34.39l48.8-134.86h38.04l48.8,134.86h-34.77L348.15,118.36z M322.99,43.63L306.46,93
			h33.23L322.99,43.63z"/>
	</g>
	<g>
		<path d="M491.31,32.96h-21.97v19.56h-5.63V9.38h5.63v18.94h21.97V9.38h5.63v43.14h-5.63V32.96z"/>
		<path d="M521.27,53.07c-9.59,0-16.9-6.81-16.9-17.58c0-10.71,7.55-17.45,17.14-17.45c9.66,0,17.14,6.75,17.14,17.45
			C538.66,46.27,530.92,53.07,521.27,53.07z M521.27,48.12c5.88,0,11.64-4.02,11.64-12.63c0-8.54-5.63-12.56-11.45-12.56
			c-5.94,0-11.33,4.02-11.33,12.56C510.13,44.1,515.39,48.12,521.27,48.12z"/>
		<path d="M595.04,33.33c0-6.93-3.71-10.46-9.28-10.46c-5.69,0-9.59,3.65-9.59,10.96v18.69h-5.57V33.33
			c0-6.93-3.71-10.46-9.28-10.46c-5.69,0-9.59,3.65-9.59,10.96v18.69h-5.63V18.6h5.63v4.89c2.23-3.59,6.25-5.51,10.71-5.51
			c5.57,0,10.21,2.48,12.44,7.55c1.98-4.89,6.81-7.55,12.01-7.55c7.74,0,13.74,4.83,13.74,14.54v19.99h-5.57V33.33z"/>
		<path d="M624.51,53.07c-9.65,0-16.77-6.81-16.77-17.58c0-10.71,6.87-17.45,16.77-17.45c9.84,0,16.28,6.93,16.28,16.22
			c0,1.24-0.06,2.23-0.19,3.4h-27.11c0.43,6.87,5.26,10.65,11.02,10.65c5.08,0,8.29-2.6,9.53-6.25h6.07
			C638.37,48.25,632.93,53.07,624.51,53.07z M613.55,33.08h21.42c0.06-6.62-4.89-10.27-10.71-10.27
			C618.75,22.81,614.17,26.46,613.55,33.08z"/>
		<path d="M678.42,52.95c-8.66,0-14.79-4.83-14.92-11.95h6c0.37,3.59,2.91,7.18,8.91,7.18c5.45,0,8.66-3.1,8.66-7.18
			c0-11.64-23.33-4.21-23.33-20.24c0-7.12,5.76-11.95,14.3-11.95c8.23,0,13.62,4.52,14.3,11.08h-6.19c-0.37-2.91-3.1-6.19-8.36-6.25
			c-4.64-0.12-8.29,2.29-8.29,6.93c0,11.14,23.27,4.21,23.27,20.18C692.78,46.88,687.77,52.95,678.42,52.95z"/>
		<path d="M715.74,53.07c-9.65,0-16.77-6.81-16.77-17.58c0-10.71,6.87-17.45,16.77-17.45c9.84,0,16.28,6.93,16.28,16.22
			c0,1.24-0.06,2.23-0.19,3.4h-27.11c0.43,6.87,5.26,10.65,11.02,10.65c5.08,0,8.29-2.6,9.53-6.25h6.07
			C729.6,48.25,724.16,53.07,715.74,53.07z M704.79,33.08h21.42c0.06-6.62-4.89-10.27-10.71-10.27
			C709.98,22.81,705.4,26.46,704.79,33.08z"/>
		<path d="M745.08,52.52h-5.63V18.6h5.63v5.51c1.92-3.78,5.57-6.13,10.96-6.13v5.82h-1.49c-5.39,0-9.47,2.41-9.47,10.27V52.52z"/>
		<path d="M764.58,18.6l10.58,28.72l10.52-28.72h6l-13.31,33.92h-6.56L758.51,18.6H764.58z"/>
		<path d="M796.33,9.25c0-2.17,1.67-3.84,3.84-3.84c2.04,0,3.71,1.67,3.71,3.84c0,2.17-1.67,3.84-3.71,3.84
			C798,13.09,796.33,11.42,796.33,9.25z M797.26,18.6h5.63v33.92h-5.63V18.6z"/>
		<path d="M826.9,18.04c8.42,0,13.93,4.33,15.66,11.45h-6.07c-1.18-4.08-4.58-6.68-9.59-6.68c-6.19,0-10.77,4.39-10.77,12.69
			c0,8.42,4.58,12.81,10.77,12.81c5.01,0,8.36-2.41,9.59-6.68h6.07c-1.73,6.75-7.24,11.45-15.66,11.45
			c-9.66,0-16.53-6.81-16.53-17.58C810.38,24.85,817.25,18.04,826.9,18.04z"/>
		<path d="M864.72,53.07c-9.65,0-16.77-6.81-16.77-17.58c0-10.71,6.87-17.45,16.77-17.45c9.84,0,16.28,6.93,16.28,16.22
			c0,1.24-0.06,2.23-0.19,3.4H853.7c0.43,6.87,5.26,10.65,11.02,10.65c5.08,0,8.29-2.6,9.53-6.25h6.07
			C878.59,48.25,873.14,53.07,864.72,53.07z M853.77,33.08h21.42c0.06-6.62-4.89-10.27-10.71-10.27
			C858.97,22.81,854.38,26.46,853.77,33.08z"/>
		<path d="M489.2,117.2h-18.82l-3.47,9.59h-5.94l15.6-42.89h6.5l15.54,42.89h-5.94L489.2,117.2z M479.8,90.83l-7.8,21.79h15.6
			L479.8,90.83z"/>
		<path d="M519.41,92.32c6.19,0,10.65,3.09,12.63,6.75v-6.19h5.69v34.66c0,9.35-6.25,15.97-16.22,15.97
			c-8.91,0-15.29-4.52-16.4-11.76h5.57c1.24,4.09,5.26,6.87,10.83,6.87c6,0,10.52-3.84,10.52-11.08v-7.12
			c-2.04,3.65-6.44,6.93-12.63,6.93c-9.1,0-16.09-7.12-16.09-17.64C503.32,99.13,510.31,92.32,519.41,92.32z M520.52,97.21
			c-6.19,0-11.45,4.52-11.45,12.5c0,7.98,5.26,12.69,11.45,12.69c6.19,0,11.51-4.64,11.51-12.63
			C532.04,101.91,526.71,97.21,520.52,97.21z"/>
		<path d="M561.93,127.35c-9.65,0-16.77-6.81-16.77-17.58c0-10.71,6.87-17.45,16.77-17.45c9.84,0,16.28,6.93,16.28,16.22
			c0,1.24-0.06,2.23-0.19,3.4h-27.11c0.43,6.87,5.26,10.64,11.02,10.64c5.08,0,8.29-2.6,9.53-6.25h6.07
			C575.79,122.52,570.35,127.35,561.93,127.35z M550.98,107.36h21.42c0.06-6.62-4.89-10.27-10.71-10.27
			C556.17,97.08,551.59,100.73,550.98,107.36z"/>
		<path d="M610.46,107.6c0-6.93-3.78-10.46-9.47-10.46c-5.76,0-9.72,3.59-9.72,10.89v18.75h-5.63V92.87h5.63v4.83
			c2.23-3.53,6.31-5.45,10.89-5.45c7.86,0,13.86,4.83,13.86,14.54v19.99h-5.57V107.6z"/>
		<path d="M639.67,92.32c8.42,0,13.93,4.33,15.66,11.45h-6.07c-1.18-4.08-4.58-6.68-9.59-6.68c-6.19,0-10.77,4.39-10.77,12.69
			c0,8.42,4.58,12.81,10.77,12.81c5.01,0,8.36-2.41,9.59-6.68h6.07c-1.73,6.75-7.24,11.45-15.66,11.45
			c-9.66,0-16.53-6.81-16.53-17.58C623.15,99.13,630.02,92.32,639.67,92.32z"/>
		<path d="M686.22,92.87h5.82l-20.42,49.89h-5.82l6.68-16.34L658.8,92.87h6.25l10.65,27.48L686.22,92.87z"/>
	</g>
	<line class="st0" x1="423.5" y1="4.96" x2="422.5" y2="143.96"/>
</g>
</svg>
