<?xml version="1.0" encoding="utf-8"?>
<!-- Generator: Adobe Illustrator 23.0.0, SVG Export Plug-In . SVG Version: 6.00 Build 0)  -->
<svg version="1.1" id="Layer_1" xmlns="http://www.w3.org/2000/svg" xmlns:xlink="http://www.w3.org/1999/xlink" x="0px" y="0px"
	 viewBox="0 0 887 148" style="enable-background:new 0 0 887 148;" xml:space="preserve">
<style type="text/css">
	.st0{fill:#FFFFFF;}
</style>
<g>
	<g>
		<path class="st0" d="M89.6,86.7H38.5v55.5H5.6V7.3h32.8v52.8h51.1V7.3h32.8v134.9H89.6V86.7z"/>
		<path class="st0" d="M194.9,143.5c-29,0-51.7-14.4-52.6-41.7h35c1,10.4,7.5,15.4,16.7,15.4c9.6,0,15.8-4.8,15.8-12.7
			c0-25-67.4-11.5-67.1-59.4c0-25.5,20.9-39.8,49.2-39.8c29.4,0,49.2,14.6,50.5,40.3h-35.5c-0.6-8.6-6.7-13.8-15.6-14
			c-7.9-0.2-13.8,3.8-13.8,12.3c0,23.4,66.7,12.9,66.7,58C244,124.7,226.4,143.5,194.9,143.5z"/>
		<path class="st0" d="M348.1,118.4h-50.3l-8.1,23.8h-34.4L304.2,7.3h38L391,142.2h-34.8L348.1,118.4z M323,43.6L306.5,93h33.2
			L323,43.6z"/>
	</g>
	<g>
		<path class="st0" d="M491.3,33h-22v19.6h-5.6V9.4h5.6v18.9h22V9.4h5.6v43.1h-5.6V33z"/>
		<path class="st0" d="M521.3,53.1c-9.6,0-16.9-6.8-16.9-17.6c0-10.7,7.5-17.5,17.1-17.5c9.7,0,17.1,6.8,17.1,17.5
			C538.7,46.3,530.9,53.1,521.3,53.1z M521.3,48.1c5.9,0,11.6-4,11.6-12.6c0-8.5-5.6-12.6-11.5-12.6c-5.9,0-11.3,4-11.3,12.6
			C510.1,44.1,515.4,48.1,521.3,48.1z"/>
		<path class="st0" d="M595,33.3c0-6.9-3.7-10.5-9.3-10.5c-5.7,0-9.6,3.6-9.6,11v18.7h-5.6V33.3c0-6.9-3.7-10.5-9.3-10.5
			c-5.7,0-9.6,3.6-9.6,11v18.7h-5.6V18.6h5.6v4.9c2.2-3.6,6.3-5.5,10.7-5.5c5.6,0,10.2,2.5,12.4,7.5c2-4.9,6.8-7.5,12-7.5
			c7.7,0,13.7,4.8,13.7,14.5v20h-5.6L595,33.3L595,33.3z"/>
		<path class="st0" d="M624.5,53.1c-9.7,0-16.8-6.8-16.8-17.6c0-10.7,6.9-17.5,16.8-17.5c9.8,0,16.3,6.9,16.3,16.2
			c0,1.2-0.1,2.2-0.2,3.4h-27.1c0.4,6.9,5.3,10.7,11,10.7c5.1,0,8.3-2.6,9.5-6.3h6.1C638.4,48.3,632.9,53.1,624.5,53.1z M613.5,33.1
			H635c0.1-6.6-4.9-10.3-10.7-10.3C618.8,22.8,614.2,26.5,613.5,33.1z"/>
		<path class="st0" d="M678.4,53c-8.7,0-14.8-4.8-14.9-12h6c0.4,3.6,2.9,7.2,8.9,7.2c5.5,0,8.7-3.1,8.7-7.2
			c0-11.6-23.3-4.2-23.3-20.2c0-7.1,5.8-11.9,14.3-11.9c8.2,0,13.6,4.5,14.3,11.1h-6.2c-0.4-2.9-3.1-6.2-8.4-6.3
			c-4.6-0.1-8.3,2.3-8.3,6.9c0,11.1,23.3,4.2,23.3,20.2C692.8,46.9,687.8,53,678.4,53z"/>
		<path class="st0" d="M715.7,53.1c-9.7,0-16.8-6.8-16.8-17.6c0-10.7,6.9-17.5,16.8-17.5c9.8,0,16.3,6.9,16.3,16.2
			c0,1.2-0.1,2.2-0.2,3.4h-27.1c0.4,6.9,5.3,10.7,11,10.7c5.1,0,8.3-2.6,9.5-6.3h6.1C729.6,48.3,724.2,53.1,715.7,53.1z M704.8,33.1
			h21.4c0.1-6.6-4.9-10.3-10.7-10.3C710,22.8,705.4,26.5,704.8,33.1z"/>
		<path class="st0" d="M745.1,52.5h-5.6V18.6h5.6v5.5c1.9-3.8,5.6-6.1,11-6.1v5.8h-1.5c-5.4,0-9.5,2.4-9.5,10.3L745.1,52.5
			L745.1,52.5z"/>
		<path class="st0" d="M764.6,18.6l10.6,28.7l10.5-28.7h6l-13.3,33.9h-6.6l-13.3-33.9H764.6z"/>
		<path class="st0" d="M796.3,9.3c0-2.2,1.7-3.8,3.8-3.8c2,0,3.7,1.7,3.7,3.8s-1.7,3.8-3.7,3.8C798,13.1,796.3,11.4,796.3,9.3z
			 M797.3,18.6h5.6v33.9h-5.6V18.6z"/>
		<path class="st0" d="M826.9,18c8.4,0,13.9,4.3,15.7,11.5h-6.1c-1.2-4.1-4.6-6.7-9.6-6.7c-6.2,0-10.8,4.4-10.8,12.7
			c0,8.4,4.6,12.8,10.8,12.8c5,0,8.4-2.4,9.6-6.7h6.1c-1.7,6.8-7.2,11.5-15.7,11.5c-9.7,0-16.5-6.8-16.5-17.6
			C810.4,24.9,817.3,18,826.9,18z"/>
		<path class="st0" d="M864.7,53.1c-9.7,0-16.8-6.8-16.8-17.6c0-10.7,6.9-17.5,16.8-17.5c9.8,0,16.3,6.9,16.3,16.2
			c0,1.2-0.1,2.2-0.2,3.4h-27.1c0.4,6.9,5.3,10.7,11,10.7c5.1,0,8.3-2.6,9.5-6.3h6.1C878.6,48.3,873.1,53.1,864.7,53.1z M853.8,33.1
			h21.4c0.1-6.6-4.9-10.3-10.7-10.3C859,22.8,854.4,26.5,853.8,33.1z"/>
		<path class="st0" d="M489.2,117.2h-18.8l-3.5,9.6H461l15.6-42.9h6.5l15.5,42.9h-5.9L489.2,117.2z M479.8,90.8l-7.8,21.8h15.6
			L479.8,90.8z"/>
		<path class="st0" d="M519.4,92.3c6.2,0,10.7,3.1,12.6,6.8v-6.2h5.7v34.7c0,9.4-6.3,16-16.2,16c-8.9,0-15.3-4.5-16.4-11.8h5.6
			c1.2,4.1,5.3,6.9,10.8,6.9c6,0,10.5-3.8,10.5-11.1v-7.1c-2,3.7-6.4,6.9-12.6,6.9c-9.1,0-16.1-7.1-16.1-17.6
			C503.3,99.1,510.3,92.3,519.4,92.3z M520.5,97.2c-6.2,0-11.5,4.5-11.5,12.5s5.3,12.7,11.5,12.7s11.5-4.6,11.5-12.6
			C532,101.9,526.7,97.2,520.5,97.2z"/>
		<path class="st0" d="M561.9,127.3c-9.7,0-16.8-6.8-16.8-17.6c0-10.7,6.9-17.5,16.8-17.5c9.8,0,16.3,6.9,16.3,16.2
			c0,1.2-0.1,2.2-0.2,3.4h-27.1c0.4,6.9,5.3,10.6,11,10.6c5.1,0,8.3-2.6,9.5-6.3h6.1C575.8,122.5,570.3,127.3,561.9,127.3z
			 M551,107.4h21.4c0.1-6.6-4.9-10.3-10.7-10.3C556.2,97.1,551.6,100.7,551,107.4z"/>
		<path class="st0" d="M610.5,107.6c0-6.9-3.8-10.5-9.5-10.5c-5.8,0-9.7,3.6-9.7,10.9v18.8h-5.6V92.9h5.6v4.8
			c2.2-3.5,6.3-5.4,10.9-5.4c7.9,0,13.9,4.8,13.9,14.5v20h-5.6L610.5,107.6L610.5,107.6z"/>
		<path class="st0" d="M639.7,92.3c8.4,0,13.9,4.3,15.7,11.4h-6.1c-1.2-4.1-4.6-6.7-9.6-6.7c-6.2,0-10.8,4.4-10.8,12.7
			c0,8.4,4.6,12.8,10.8,12.8c5,0,8.4-2.4,9.6-6.7h6.1c-1.7,6.8-7.2,11.4-15.7,11.4c-9.7,0-16.5-6.8-16.5-17.6
			C623.2,99.1,630,92.3,639.7,92.3z"/>
		<path class="st0" d="M686.2,92.9h5.8l-20.4,49.9h-5.8l6.7-16.3l-13.7-33.6h6.3l10.7,27.5L686.2,92.9z"/>
	</g>
	<g>
		<line class="st0" x1="423.5" y1="5" x2="422.5" y2="144"/>
		
			<rect x="353.5" y="73" transform="matrix(7.161275e-03 -1 1 7.161275e-03 345.5127 496.9159)" class="st0" width="139" height="3"/>
	</g>
</g>
</svg>
